<svg width="303" height="64" viewBox="0 0 303 64" fill="none" xmlns="http://www.w3.org/2000/svg">
<rect width="301" height="60" fill="black" fill-opacity="0" transform="translate(2 2)"/>
<path d="M83.01 42.39V45H73.35V42.39C73.85 42.21 74.6 41.96 75.6 41.64V27.39L73.35 26.49V24L80.25 23.85H88.65V29.55H85.86L85.11 27.39H80.25V32.7H86.46V36H80.25V41.64C81.81 42.06 82.73 42.31 83.01 42.39ZM91.6523 29.04L97.8623 28.8L98.1323 30.87C98.2923 30.69 98.5123 30.47 98.7923 30.21C99.0723 29.95 99.5723 29.6 100.292 29.16C101.032 28.72 101.702 28.5 102.302 28.5C102.782 28.5 103.242 28.55 103.682 28.65C104.142 28.73 104.482 28.82 104.702 28.92L105.002 29.04L104.762 34.74H102.152L101.702 32.19C101.182 32.19 100.652 32.33 100.112 32.61C99.5723 32.89 99.1623 33.17 98.8823 33.45L98.4623 33.87V41.85L101.312 42.6V45H91.6523V42.6L94.0523 41.85V32.04L91.6523 31.44V29.04ZM122.229 37.8L112.269 37.89C112.349 39.13 112.709 40.09 113.349 40.77C114.009 41.45 114.849 41.79 115.869 41.79C116.609 41.79 117.399 41.68 118.239 41.46C119.079 41.22 119.729 40.98 120.189 40.74L120.909 40.38L122.199 42.78C121.979 42.96 121.669 43.19 121.269 43.47C120.869 43.75 120.069 44.13 118.869 44.61C117.669 45.07 116.499 45.3 115.359 45.3C112.819 45.3 110.879 44.6 109.539 43.2C108.219 41.78 107.559 39.78 107.559 37.2C107.559 34.54 108.269 32.43 109.689 30.87C111.109 29.29 113.069 28.5 115.569 28.5C117.769 28.5 119.459 29.13 120.639 30.39C121.819 31.65 122.409 33.37 122.409 35.55L122.229 37.8ZM115.269 32.01C114.449 32.01 113.779 32.29 113.259 32.85C112.759 33.41 112.449 34.16 112.329 35.1H117.729C117.729 33.04 116.909 32.01 115.269 32.01ZM140.129 37.8L130.169 37.89C130.249 39.13 130.609 40.09 131.249 40.77C131.909 41.45 132.749 41.79 133.769 41.79C134.509 41.79 135.299 41.68 136.139 41.46C136.979 41.22 137.629 40.98 138.089 40.74L138.809 40.38L140.099 42.78C139.879 42.96 139.569 43.19 139.169 43.47C138.769 43.75 137.969 44.13 136.769 44.61C135.569 45.07 134.399 45.3 133.259 45.3C130.719 45.3 128.779 44.6 127.439 43.2C126.119 41.78 125.459 39.78 125.459 37.2C125.459 34.54 126.169 32.43 127.589 30.87C129.009 29.29 130.969 28.5 133.469 28.5C135.669 28.5 137.359 29.13 138.539 30.39C139.719 31.65 140.309 33.37 140.309 35.55L140.129 37.8ZM133.169 32.01C132.349 32.01 131.679 32.29 131.159 32.85C130.659 33.41 130.349 34.16 130.229 35.1H135.629C135.629 33.04 134.809 32.01 133.169 32.01ZM156.828 27.72C155.888 27.4 154.768 27.24 153.468 27.24C150.168 27.24 148.518 29.69 148.518 34.59C148.518 39.19 150.218 41.49 153.618 41.49C154.498 41.49 155.408 41.32 156.348 40.98C157.308 40.62 158.048 40.26 158.568 39.9L159.318 39.39L160.968 42.09C160.888 42.17 160.768 42.29 160.608 42.45C160.448 42.59 160.098 42.85 159.558 43.23C159.038 43.61 158.488 43.94 157.908 44.22C157.328 44.5 156.598 44.76 155.718 45C154.858 45.24 153.988 45.36 153.108 45.36C150.048 45.36 147.678 44.46 145.998 42.66C144.338 40.84 143.508 38.2 143.508 34.74C143.508 31.24 144.418 28.49 146.238 26.49C148.058 24.49 150.518 23.49 153.618 23.49C154.698 23.49 155.818 23.61 156.978 23.85C158.138 24.07 159.028 24.3 159.648 24.54L160.608 24.9L160.458 30.6H157.518L156.828 27.72ZM172.228 28.5C174.648 28.5 176.508 29.21 177.808 30.63C179.128 32.03 179.788 34.02 179.788 36.6C179.788 39.28 179.058 41.4 177.598 42.96C176.158 44.52 174.218 45.3 171.778 45.3C166.678 45.3 164.128 42.55 164.128 37.05C164.128 34.37 164.858 32.28 166.318 30.78C167.778 29.26 169.748 28.5 172.228 28.5ZM172.078 31.95C170.938 31.95 170.098 32.32 169.558 33.06C169.038 33.8 168.778 35.08 168.778 36.9C168.778 38.62 169.028 39.88 169.528 40.68C170.028 41.46 170.828 41.85 171.928 41.85C173.028 41.85 173.838 41.46 174.358 40.68C174.878 39.9 175.138 38.59 175.138 36.75C175.138 35.13 174.888 33.93 174.388 33.15C173.908 32.35 173.138 31.95 172.078 31.95ZM200.242 44.79L193.942 45L193.672 43.41C192.412 44.67 190.902 45.3 189.142 45.3C187.082 45.3 185.542 44.6 184.522 43.2C183.502 41.8 182.992 39.83 182.992 37.29C182.992 34.45 183.702 32.28 185.122 30.78C186.562 29.26 188.682 28.5 191.482 28.5C192.142 28.5 192.792 28.6 193.432 28.8V24.99L191.032 24.39V21.99L197.842 21.75V41.79L200.242 42.39V44.79ZM193.432 40.08V32.4C192.932 32.1 192.152 31.95 191.092 31.95C188.792 31.95 187.642 33.65 187.642 37.05C187.642 40.21 188.602 41.79 190.522 41.79C191.082 41.79 191.602 41.65 192.082 41.37C192.582 41.07 192.932 40.78 193.132 40.5L193.432 40.08ZM217.702 37.8L207.742 37.89C207.822 39.13 208.182 40.09 208.822 40.77C209.482 41.45 210.322 41.79 211.342 41.79C212.082 41.79 212.872 41.68 213.712 41.46C214.552 41.22 215.202 40.98 215.662 40.74L216.382 40.38L217.672 42.78C217.452 42.96 217.142 43.19 216.742 43.47C216.342 43.75 215.542 44.13 214.342 44.61C213.142 45.07 211.972 45.3 210.832 45.3C208.292 45.3 206.352 44.6 205.012 43.2C203.692 41.78 203.032 39.78 203.032 37.2C203.032 34.54 203.742 32.43 205.162 30.87C206.582 29.29 208.542 28.5 211.042 28.5C213.242 28.5 214.932 29.13 216.112 30.39C217.292 31.65 217.882 33.37 217.882 35.55L217.702 37.8ZM210.742 32.01C209.922 32.01 209.252 32.29 208.732 32.85C208.232 33.41 207.922 34.16 207.802 35.1H213.202C213.202 33.04 212.382 32.01 210.742 32.01ZM229.541 42.39V45H220.991V42.39L223.241 41.64V27.39L220.991 26.49V24L228.731 23.85L233.231 33.84L237.941 24L245.141 23.85V26.49L242.981 27.39V41.64L245.231 42.39V45H236.291V42.39L238.631 41.64V30.27C238.271 31.21 237.851 32.19 237.371 33.21C236.911 34.21 236.381 35.31 235.781 36.51C235.201 37.69 234.751 38.62 234.431 39.3L231.191 39.45L227.741 32.34L227.231 30.78V41.64L229.541 42.39ZM264.49 44.79L258.55 45L258.01 43.05C257.83 43.21 257.59 43.42 257.29 43.68C256.99 43.92 256.41 44.25 255.55 44.67C254.71 45.09 253.91 45.3 253.15 45.3C251.69 45.3 250.55 44.89 249.73 44.07C248.91 43.25 248.5 42.09 248.5 40.59C248.5 37.29 250.9 35.64 255.7 35.64H257.8V33.99C257.8 32.49 257.03 31.74 255.49 31.74C255.03 31.74 254.58 31.78 254.14 31.86C253.7 31.94 253.37 32.02 253.15 32.1L252.85 32.19L252.4 34.14H249.7L249.49 29.7C251.91 28.9 254.08 28.5 256 28.5C258.28 28.5 259.89 28.95 260.83 29.85C261.77 30.73 262.24 32.26 262.24 34.44V41.85L264.49 42.39V44.79ZM252.82 40.14C252.82 41.34 253.41 41.94 254.59 41.94C255.07 41.94 255.57 41.8 256.09 41.52C256.63 41.22 257.05 40.92 257.35 40.62L257.8 40.2V38.19H256.09C254.93 38.19 254.09 38.35 253.57 38.67C253.07 38.97 252.82 39.46 252.82 40.14ZM267.394 29.04L273.604 28.8L273.874 30.87C274.034 30.69 274.254 30.47 274.534 30.21C274.814 29.95 275.314 29.6 276.034 29.16C276.774 28.72 277.444 28.5 278.044 28.5C278.524 28.5 278.984 28.55 279.424 28.65C279.884 28.73 280.224 28.82 280.444 28.92L280.744 29.04L280.504 34.74H277.894L277.444 32.19C276.924 32.19 276.394 32.33 275.854 32.61C275.314 32.89 274.904 33.17 274.624 33.45L274.204 33.87V41.85L277.054 42.6V45H267.394V42.6L269.794 41.85V32.04L267.394 31.44V29.04ZM283.001 21.99L289.811 21.75V34.89H291.761L293.831 31.71L292.511 31.29V28.89L300.251 28.74V31.29L298.151 31.68L295.361 35.67L298.721 41.88L301.001 42.6V45H295.451L291.731 37.65H289.811V41.85L291.461 42.6V45H283.001V42.6L285.401 41.85V24.99L283.001 24.39V21.99Z" fill="black"/>
<rect width="60" height="60" fill="black" fill-opacity="0" transform="translate(2 2)"/>
<rect x="2" y="2" width="60" height="60" rx="8" fill="#AD00FF"/>
<circle cx="32.5" cy="32.5" r="15.5" stroke="white" stroke-width="2"/>
<path d="M53.8811 12C53.8811 10.8954 52.9856 10 51.8811 10H33.8811C32.7765 10 31.8811 10.8954 31.8811 12C31.8811 13.1046 32.7765 14 33.8811 14H49.8811V30C49.8811 31.1046 50.7765 32 51.8811 32C52.9856 32 53.8811 31.1046 53.8811 30V12ZM13.4142 53.2953L53.2953 13.4142L50.4669 10.5858L10.5858 50.4669L13.4142 53.2953Z" fill="white"/>
<path d="M10 51.8811C10 52.9856 10.8954 53.8811 12 53.8811H30C31.1046 53.8811 32 52.9856 32 51.8811C32 50.7765 31.1046 49.8811 30 49.8811H14V33.8811C14 32.7765 13.1046 31.8811 12 31.8811C10.8954 31.8811 10 32.7765 10 33.8811V51.8811ZM50.4669 10.5858L10.5858 50.4669L13.4142 53.2953L53.2953 13.4142L50.4669 10.5858Z" fill="white"/>
<path d="M51.8811 52.8811C52.4334 52.8811 52.8811 52.4334 52.8811 51.8811V42.8811C52.8811 42.3288 52.4334 41.8811 51.8811 41.8811C51.3288 41.8811 50.8811 42.3288 50.8811 42.8811V50.8811H42.8811C42.3288 50.8811 41.8811 51.3288 41.8811 51.8811C41.8811 52.4334 42.3288 52.8811 42.8811 52.8811H51.8811ZM11.2929 12.7071L51.174 52.5882L52.5882 51.174L12.7071 11.2929L11.2929 12.7071Z" fill="white"/>
<path d="M12 11C11.4477 11 11 11.4477 11 12V21C11 21.5523 11.4477 22 12 22C12.5523 22 13 21.5523 13 21V13H21C21.5523 13 22 12.5523 22 12C22 11.4477 21.5523 11 21 11H12ZM52.5882 51.174L12.7071 11.2929L11.2929 12.7071L51.174 52.5882L52.5882 51.174Z" fill="white"/>
</svg>
