<svg width="568" height="480" viewBox="0 0 568 480" fill="none" xmlns="http://www.w3.org/2000/svg">
<rect width="567.299" height="480" fill="black" fill-opacity="0"/>
<path opacity="0.1" d="M52.9338 413.077C66.2339 413.077 77.0157 411.423 77.0157 409.383C77.0157 407.343 66.2339 405.689 52.9338 405.689C39.6337 405.689 28.8518 407.343 28.8518 409.383C28.8518 411.423 39.6337 413.077 52.9338 413.077Z" fill="#AD00FF"/>
<path opacity="0.1" d="M400.272 418.102C413.572 418.102 424.354 416.449 424.354 414.409C424.354 412.369 413.572 410.715 400.272 410.715C386.972 410.715 376.19 412.369 376.19 414.409C376.19 416.449 386.972 418.102 400.272 418.102Z" fill="#AD00FF"/>
<path opacity="0.1" d="M340.946 452.323C354.246 452.323 365.028 450.669 365.028 448.629C365.028 446.589 354.246 444.936 340.946 444.936C327.646 444.936 316.864 446.589 316.864 448.629C316.864 450.669 327.646 452.323 340.946 452.323Z" fill="#AD00FF"/>
<path opacity="0.1" d="M130.967 385.516C144.268 385.516 155.049 383.862 155.049 381.822C155.049 379.782 144.268 378.129 130.967 378.129C117.667 378.129 106.885 379.782 106.885 381.822C106.885 383.862 117.667 385.516 130.967 385.516Z" fill="#AD00FF"/>
<path opacity="0.1" d="M138.134 480C214.423 480 276.268 466.669 276.268 450.223C276.268 433.778 214.423 420.447 138.134 420.447C61.8446 420.447 0 433.778 0 450.223C0 466.669 61.8446 480 138.134 480Z" fill="#AD00FF"/>
<path opacity="0.1" d="M548.097 330.919C544.368 339.906 539.476 348.521 532.63 355.129C524.289 363.179 513.929 367.571 502.836 369.671C499.566 370.28 496.264 370.708 492.947 370.951C484.181 371.625 475.206 371.177 466.597 370.241C445.51 367.939 424.713 363.489 404.53 356.961C401.215 355.891 397.918 354.764 394.642 353.581C389.697 351.809 384.797 349.907 379.942 347.875C360.165 339.609 339.718 329.069 318.679 332.338C308.482 333.926 298.901 338.737 288.681 340.168C281.508 341.11 274.219 340.592 267.252 338.644C263.878 337.741 260.574 336.6 257.363 335.229C250.125 332.082 243.239 328.183 236.817 323.595C221.403 312.822 207.57 299.467 191.341 290.136C173.448 279.846 153.642 274.954 133.463 271.307C130.178 270.714 126.882 270.148 123.574 269.609C114.238 268.067 104.879 266.642 95.6531 264.955C86.7648 263.315 77.7196 261.308 69.9831 256.375C64.4628 252.856 59.821 247.981 55.563 242.845C47.7083 233.327 40.971 222.94 35.4831 211.888C35.1922 211.306 34.9072 210.724 34.628 210.143C26.083 192.61 20.3359 173.496 16.8108 153.719C16.7061 153.137 16.6072 152.555 16.5084 151.974C13.1927 132.586 11.9828 112.541 12.3493 92.6412L12.3842 90.8961C12.611 81.0714 13.2218 71.2874 14.1292 61.643C14.7807 54.8605 15.6533 47.822 19.1667 42.1215C22.6801 36.4209 28.4039 32.7621 34.1045 29.714C59.3149 16.2944 83.4608 12.56 110.556 19.0633C114.907 20.1045 119.241 21.2272 123.574 22.3905C126.872 23.2747 130.171 24.188 133.463 25.107C156.224 31.4533 178.928 38.2067 202.457 40.231C204.73 40.4287 207.004 40.58 209.28 40.6847C213.783 40.8941 218.285 40.9406 222.787 40.8243C234.385 40.4988 245.942 39.3088 257.363 37.2643C260.667 36.6943 263.963 36.0622 267.252 35.368C281.445 32.4072 295.51 28.4576 309.348 24.0891C312.175 23.1972 314.999 22.2897 317.818 21.3668C324.17 19.2901 330.522 17.1728 336.886 15.1136C355.884 8.95351 374.975 3.32857 394.642 1.05998C396.325 0.869961 398.008 0.701271 399.691 0.55391C401.302 0.414304 402.919 0.303783 404.53 0.222347C435.04 -1.40638 465.899 5.95199 492.947 21.0119C496.305 22.8772 499.602 24.8627 502.836 26.9684C507.323 29.8885 511.672 33.0296 515.883 36.3918C524.515 43.2848 532.595 51.1318 538.749 60.561C544.747 69.7459 548.638 80.0592 550.878 90.9019C551 91.4836 551.116 92.0653 551.221 92.647C554.507 110.15 553.484 128.921 549.796 146.459C549.406 148.297 548.993 150.141 548.562 151.979C548.429 152.561 548.289 153.143 548.149 153.724C544.171 170.308 539.087 186.846 540.413 203.802C540.582 205.937 540.849 208.054 541.198 210.148C541.297 210.73 541.396 211.312 541.507 211.893C544.101 225.726 549.999 238.849 553.536 252.548C560.175 278.579 558.268 306.054 548.097 330.919Z" fill="#AD00FF"/>
<path opacity="0.1" d="M502.836 92.647H551.227C551.122 92.0653 551.006 91.4836 550.883 90.9019H502.836V26.9684C499.602 24.8666 496.305 22.8811 492.947 21.0119V90.9019H404.53V0.222336C402.919 0.303772 401.302 0.414293 399.691 0.553899C398.079 0.693504 396.323 0.868011 394.642 1.05997V90.9019H268.415L268.112 90.5704L336.886 15.1078C330.522 17.167 324.17 19.2843 317.818 21.3609L267.251 76.8483V35.3622C263.959 36.0525 260.663 36.6846 257.363 37.2585V78.7621L222.787 40.8185C218.285 40.927 213.783 40.8805 209.28 40.6789L254.745 90.5704L254.443 90.9019H133.451V25.107C130.159 24.188 126.861 23.2747 123.563 22.3905V90.9019H12.3725L12.3376 92.647H123.574V151.979H16.4967C16.5956 152.561 16.6945 153.143 16.7992 153.724H123.574V210.148H34.6163C34.8956 210.73 35.1806 211.312 35.4714 211.893H123.574V269.632C126.878 270.175 130.174 270.741 133.463 271.33V211.893H257.363V335.212C260.574 336.583 263.878 337.724 267.251 338.626V211.893H394.642V353.576C397.922 354.762 401.218 355.889 404.53 356.955V211.893H492.947V370.945C496.264 370.702 499.566 370.275 502.836 369.665V211.893H541.507C541.396 211.312 541.297 210.73 541.198 210.148H502.807V153.724H548.12C548.26 153.143 548.4 152.561 548.533 151.979H502.836V92.647ZM492.947 92.647V151.979H404.53V92.647H492.947ZM394.642 151.979H267.251V92.647H394.642V151.979ZM133.463 92.647H255.618L257.363 94.235V151.979H133.463V92.647ZM133.463 210.148V153.724H257.363V210.148H133.463ZM267.251 210.148V153.724H394.642V210.148H267.251ZM492.947 210.148H404.53V153.724H492.947V210.148Z" fill="#AD00FF"/>
<path opacity="0.1" d="M450.437 51.7891H449.669C449.94 51.633 450.167 51.4118 450.331 51.1457C450.494 50.8796 450.589 50.577 450.606 50.2651V50.2651C450.606 49.0668 449.134 48.0838 447.337 48.0838H424.418C422.621 48.0838 421.143 49.0668 421.143 50.2651C421.143 51.4692 422.621 52.4523 424.418 52.4523H425.186C424.916 52.6088 424.689 52.8301 424.525 53.0961C424.362 53.3621 424.267 53.6646 424.25 53.9763C424.25 55.0001 425.32 55.8668 426.751 56.0995H420.143C418.34 56.0995 416.868 57.0825 416.868 58.2808C416.868 59.4791 418.34 60.4679 420.143 60.4679H443.067C444.87 60.4679 446.342 59.4849 446.342 58.2808C446.342 57.257 445.272 56.3961 443.835 56.1634H450.437C452.235 56.1634 453.706 55.1804 453.706 53.9763C453.706 52.7722 452.235 51.7891 450.437 51.7891Z" fill="#AD00FF"/>
<path opacity="0.1" d="M201.963 72.5962H201.195C201.464 72.438 201.689 72.2164 201.853 71.9507C202.016 71.685 202.112 71.3834 202.131 71.0721V71.0721C202.131 69.868 200.66 68.885 198.856 68.885H175.932C174.129 68.885 172.657 69.868 172.657 71.0721C172.657 72.2704 174.129 73.2535 175.932 73.2535H176.694C176.426 73.4119 176.201 73.6338 176.039 73.8995C175.876 74.1652 175.782 74.4667 175.763 74.7775C175.763 75.8071 176.834 76.668 178.265 76.9007H171.668C169.865 76.9007 168.393 77.8837 168.393 79.0878C168.393 80.2919 169.865 81.2692 171.668 81.2692H194.593C196.396 81.2692 197.868 80.2861 197.868 79.0878C197.868 78.0582 196.791 77.1973 195.36 76.9647H201.963C203.76 76.9647 205.232 75.9816 205.232 74.7775C205.232 73.5734 203.76 72.5962 201.963 72.5962Z" fill="#AD00FF"/>
<path opacity="0.1" d="M485.606 161.63H484.838C485.107 161.471 485.333 161.25 485.496 160.984C485.66 160.718 485.755 160.417 485.775 160.106C485.775 158.907 484.303 157.924 482.5 157.924H459.576C457.772 157.924 456.301 158.907 456.301 160.106C456.301 161.304 457.772 162.287 459.576 162.287H460.338C460.069 162.445 459.844 162.667 459.682 162.933C459.519 163.198 459.425 163.5 459.407 163.811C459.407 164.835 460.477 165.701 461.908 165.934H455.306C453.509 165.934 452.037 166.917 452.037 168.115C452.037 169.314 453.509 170.303 455.306 170.303H478.236C480.034 170.303 481.511 169.32 481.511 168.115C481.511 167.092 480.435 166.231 479.004 165.998H485.606C487.404 165.998 488.875 165.015 488.875 163.811C488.875 162.607 487.404 161.63 485.606 161.63Z" fill="#AD00FF"/>
<path d="M132.247 349.87L400.272 379.99V388.535L131.567 357.391L132.247 349.87Z" fill="#EAECF0"/>
<path d="M131.84 381.619H126.756V255.346L130.415 256.457L130.456 260.243L131.84 381.619Z" fill="#EAECF0"/>
<path d="M134.079 379.583L131.84 381.619L130.456 260.243L130.415 256.457H133.062L133.096 260.47L134.079 379.583Z" fill="#D3DAE1"/>
<path d="M53.9983 376.325L128.181 350.481V352.924L53.9983 378.565V376.325Z" fill="#D3DAE1"/>
<path d="M55.3245 384.463L53.9983 378.565L128.181 352.924V358.008L55.3245 384.463Z" fill="#EAECF0"/>
<path d="M400.272 247.301V414.176H396.404L396.206 259.371L396.2 254.421L400.272 247.301Z" fill="#EAECF0"/>
<path d="M403.117 246.486V412.751L400.272 414.176V247.301L403.117 246.486Z" fill="#D3DAE1"/>
<path d="M340.946 410.517L396.358 379.548L400.272 381.822L340.946 414.176V410.517Z" fill="#D3DAE1"/>
<path d="M342.679 421.098L340.946 414.176L400.272 381.822V388.535L342.679 421.098Z" fill="#EAECF0"/>
<path d="M334.332 273.96L334.536 450.2H340.033L339.218 271.924L334.332 273.96Z" fill="#EAECF0"/>
<path d="M342.679 270.295V448.775L340.033 450.2L339.218 271.924L339.544 271.773L342.679 270.295Z" fill="#D3DAE1"/>
<path d="M53.2886 410.721H48.606L47.0005 253.071L46.9773 250.355H51.4563L51.4912 253.455L53.2886 410.721Z" fill="#EAECF0"/>
<path d="M56.5402 409.499L53.2886 410.721L51.4912 253.455L51.4563 250.355H54.9173L54.9464 253.758L56.5402 409.499Z" fill="#D3DAE1"/>
<path opacity="0.1" d="M339.544 271.773L342.679 270.295V277.217L339.625 278.235L339.544 271.773Z" fill="black"/>
<path opacity="0.1" d="M403.117 246.486V257.067L400.272 258.021L396.206 259.371L396.2 254.421L400.272 247.301L403.117 246.486Z" fill="black"/>
<path d="M403.117 226.133V255.439L339.625 276.606L339.218 245.265L403.117 226.133Z" fill="#D48A9B"/>
<path d="M46.1629 224.097L129.606 208.229L403.117 226.133L339.218 245.265L46.1629 224.097Z" fill="#EFC6CD"/>
<path opacity="0.1" d="M54.9173 250.355L54.9464 253.758L51.4912 253.455L47.0005 253.071L46.9773 250.355H54.9173Z" fill="black"/>
<path opacity="0.1" d="M133.096 260.47L130.456 260.243L126.756 259.929V255.346L130.415 256.457H133.062L133.096 260.47Z" fill="black"/>
<path d="M46.1629 224.097V251.373L339.625 276.606L339.218 245.265L46.1629 224.097Z" fill="#D48A9B"/>
<path d="M278.845 256.526H240.517V242.618L278.845 245.317V256.526Z" fill="#D48A9B"/>
<path opacity="0.1" d="M278.845 256.526H240.517V242.618L278.845 245.317V256.526Z" fill="black"/>
<path opacity="0.1" d="M189.026 239.57V261.546L336.164 272.738V249.337L278.775 246.079L273.074 251.169L249.673 249.54L241.331 243.433L189.026 239.57Z" fill="black"/>
<path d="M188.212 238.75V260.732L335.35 271.924V248.522L277.96 245.265L272.266 250.355L248.858 248.726L240.517 242.618L188.212 238.75Z" fill="white"/>
<path d="M97.4505 232.852L132.247 235.295L131.84 246.353H109.119L93.9196 240.379L97.4505 232.852Z" fill="#D48A9B"/>
<path opacity="0.1" d="M97.4505 232.852L132.247 235.295L131.84 246.353H109.119L93.9196 240.379L97.4505 232.852Z" fill="black"/>
<path opacity="0.1" d="M51.0491 229.798V249.54L184.553 260.121V239.157L133.062 236.109L127.57 240.175L106.81 238.959L98.2648 233.666L51.0491 229.798Z" fill="black"/>
<path d="M50.2347 228.983V248.726L183.738 259.307V238.349L132.247 235.295L126.756 239.367L105.995 238.145L97.4505 232.852L50.2347 228.983Z" fill="white"/>
<path opacity="0.1" d="M56.2203 377.797L57.1336 377.483L56.674 383.975L56.2203 384.138V377.797Z" fill="black"/>
<path opacity="0.1" d="M336.182 229.059L354.895 230.286L323.885 239.57L308.092 238.424L336.182 229.059Z" fill="black"/>
<path d="M336.182 228.245L354.895 229.472L323.885 238.75L308.092 237.61L336.182 228.245Z" fill="white"/>
<path d="M333.942 230.345C334.681 230.03 335.466 230.624 336.269 230.775C336.717 230.862 337.182 230.775 337.63 230.862C338.549 230.984 339.462 231.601 340.335 231.287" fill="#D3DAE1"/>
<path d="M332.977 230.909C333.71 230.589 334.501 231.182 335.303 231.333C335.751 231.421 336.217 231.333 336.67 231.421C337.589 231.543 338.497 232.159 339.369 231.845" fill="#D3DAE1"/>
<path d="M330.766 232.026C331.505 231.712 332.296 232.305 333.093 232.456C333.541 232.543 334.006 232.456 334.46 232.543C335.379 232.666 336.286 233.282 337.159 232.968" fill="#D3DAE1"/>
<path d="M29.0845 434.32C32.1011 434.32 34.5465 431.874 34.5465 428.858C34.5465 425.841 32.1011 423.396 29.0845 423.396C26.0679 423.396 23.6224 425.841 23.6224 428.858C23.6224 431.874 26.0679 434.32 29.0845 434.32Z" fill="#535461"/>
<path d="M38.8569 455.685C41.8735 455.685 44.3189 453.24 44.3189 450.223C44.3189 447.207 41.8735 444.761 38.8569 444.761C35.8403 444.761 33.3948 447.207 33.3948 450.223C33.3948 453.24 35.8403 455.685 38.8569 455.685Z" fill="#535461"/>
<path d="M136.307 459.554C139.324 459.554 141.769 457.108 141.769 454.092C141.769 451.075 139.324 448.629 136.307 448.629C133.291 448.629 130.845 451.075 130.845 454.092C130.845 457.108 133.291 459.554 136.307 459.554Z" fill="#535461"/>
<path d="M158.08 431.673C161.097 431.673 163.542 429.228 163.542 426.211C163.542 423.195 161.097 420.749 158.08 420.749C155.063 420.749 152.618 423.195 152.618 426.211C152.618 429.228 155.063 431.673 158.08 431.673Z" fill="#535461"/>
<path d="M96.45 332.396H89.6093V375.133H96.45V332.396Z" fill="#535461"/>
<path opacity="0.1" d="M96.45 368.211H89.6093V375.133H96.45V368.211Z" fill="black"/>
<path d="M97.7704 369.84H88.2889V417.259H97.7704V369.84Z" fill="#3A3768"/>
<path d="M156.899 416.951L94.8212 414.409V424.396H166.864C166.147 422.295 164.812 420.46 163.034 419.131C161.256 417.802 159.117 417.042 156.899 416.951V416.951Z" fill="#3A3768"/>
<path d="M32.7433 416.951L94.8212 414.409V424.396H22.779C23.4945 422.295 24.8292 420.459 26.6076 419.13C28.3861 417.801 30.525 417.041 32.7433 416.951V416.951Z" fill="#3A3768"/>
<path d="M88.2888 415.427L38.7289 439.858C36.6327 440.898 34.8685 442.502 33.6353 444.491C32.402 446.48 31.7486 448.773 31.7486 451.113V451.858L89.6267 426.624L97.7704 426.013L145.899 456.744C146.207 454.473 145.886 452.161 144.972 450.058C144.059 447.956 142.587 446.144 140.717 444.819L97.7704 414.415L88.2888 415.427Z" fill="#3A3768"/>
<path opacity="0.1" d="M96.45 332.39V336.997C95.2517 337.048 94.0301 337.073 92.7853 337.073C91.7092 337.073 90.6505 337.073 89.6093 337.015V332.39H96.45Z" fill="black"/>
<path d="M92.7853 335.444C106.725 335.444 118.025 332.139 118.025 328.063C118.025 323.986 106.725 320.681 92.7853 320.681C78.8459 320.681 67.5458 323.986 67.5458 328.063C67.5458 332.139 78.8459 335.444 92.7853 335.444Z" fill="#3A3768"/>
<path opacity="0.1" d="M117.804 328.063C117.78 328.473 117.672 328.874 117.487 329.241C117.301 329.608 117.043 329.934 116.728 330.197C113.61 333.234 103.971 335.433 92.5701 335.433C81.4191 335.433 71.9666 333.315 68.6219 330.389C68.2512 330.118 67.9435 329.769 67.7197 329.367C67.4958 328.966 67.3611 328.521 67.3248 328.063C67.3248 323.991 78.627 320.681 92.5701 320.681C106.513 320.681 117.804 323.985 117.804 328.063Z" fill="black"/>
<path opacity="0.1" d="M118.019 328.063C117.995 328.473 117.887 328.874 117.702 329.241C117.517 329.609 117.258 329.934 116.943 330.197C113.732 329.395 111.51 328.732 111.51 328.732C111.51 328.732 89.2603 329.976 68.8372 330.401C68.4665 330.129 68.1587 329.781 67.9349 329.379C67.711 328.978 67.5763 328.533 67.54 328.074C67.54 324.002 78.8422 320.693 92.7853 320.693C106.728 320.693 118.019 323.985 118.019 328.063Z" fill="black"/>
<path d="M29.0845 230.839C29.0845 230.839 37.4317 253.635 37.0245 267.27C36.6174 280.905 30.1024 306.546 30.1024 306.546C30.1024 306.546 23.5933 327.306 40.282 329.139C56.9707 330.971 111.51 327.917 111.51 327.917C111.51 327.917 131.869 334.019 138.372 331.372C140.903 330.349 143.096 328.092 144.829 325.713C145.778 324.416 146.453 322.94 146.814 321.374C147.174 319.808 147.211 318.185 146.924 316.604C146.637 315.023 146.03 313.517 145.142 312.178C144.254 310.839 143.102 309.694 141.758 308.815C138.719 306.921 135.411 305.501 131.945 304.603C131.215 304.405 130.461 304.313 129.705 304.33L58.5936 305.732C58.5936 305.732 50.6593 304.51 52.0845 296.576C53.5096 288.642 55.9469 264.216 55.9469 264.216C55.9469 264.216 56.3541 234.504 42.1085 226.162C27.8629 217.821 29.0845 230.839 29.0845 230.839Z" fill="#3A3768"/>
<path opacity="0.1" d="M29.0845 230.769C29.0845 230.769 37.4317 253.56 37.0245 267.195C36.6174 280.829 30.1024 306.476 30.1024 306.476C30.1024 306.476 23.5933 327.231 40.282 329.063C56.9707 330.895 111.51 327.836 111.51 327.836C111.51 327.836 131.869 333.944 138.372 331.326C140.903 330.296 143.096 328.039 144.829 325.666C145.778 324.369 146.454 322.892 146.814 321.326C147.174 319.759 147.212 318.136 146.924 316.554C146.637 314.973 146.031 313.467 145.143 312.127C144.254 310.787 143.103 309.642 141.758 308.762C138.717 306.873 135.409 305.453 131.945 304.551C131.215 304.352 130.461 304.262 129.705 304.283L58.5936 305.662C58.5936 305.662 50.6593 304.44 52.0845 296.5C53.5096 288.56 55.9469 264.147 55.9469 264.147C55.9469 264.147 56.3541 234.434 42.1085 226.087C27.8629 217.739 29.0845 230.769 29.0845 230.769Z" fill="black"/>
<path d="M30.7132 230.025C30.7132 230.025 39.0605 252.821 38.6533 266.456C38.2461 280.091 31.7312 305.732 31.7312 305.732C31.7312 305.732 25.2221 326.492 41.9049 328.324C58.5878 330.157 113.133 327.103 113.133 327.103C113.133 327.103 133.492 333.205 140.001 330.593C142.531 329.563 144.724 327.306 146.458 324.927C147.407 323.631 148.082 322.154 148.442 320.588C148.803 319.022 148.84 317.399 148.553 315.818C148.265 314.237 147.659 312.731 146.771 311.392C145.883 310.053 144.731 308.909 143.386 308.029C140.35 306.125 137.041 304.695 133.573 303.789C132.844 303.591 132.09 303.499 131.334 303.515L60.2223 304.917C60.2223 304.917 52.2881 303.696 53.7132 295.761C55.1384 287.827 57.5756 263.402 57.5756 263.402C57.5756 263.402 57.9828 233.689 43.7372 225.348C29.4917 217.006 30.7132 230.025 30.7132 230.025Z" fill="#3A3768"/>
<path d="M175.112 425.984V433.343C175.112 433.343 210.263 433.977 218.006 433.977C225.748 433.977 236.405 430.172 237.039 427.124C237.673 424.076 228.156 421.54 224.602 421.418C221.048 421.296 220.926 419.894 216.354 417.48C213.777 416.119 209.862 412.169 206.942 408.987C204.691 406.533 203.033 404.537 203.033 404.537C203.033 404.537 184.122 404.159 178.666 407.202C177.41 407.905 176.543 409.278 175.95 410.983C173.983 416.666 175.112 425.984 175.112 425.984Z" fill="#434175"/>
<path opacity="0.1" d="M175.949 410.983C179.917 409.604 203.126 409.069 206.942 408.987C204.691 406.533 203.033 404.537 203.033 404.537C203.033 404.537 184.122 404.159 178.666 407.202C177.41 407.905 176.543 409.272 175.949 410.983Z" fill="black"/>
<path d="M73.9735 293.627L76.021 294.866L76.7888 295.331L79.7729 297.123C95.7228 306.738 139.227 332.792 141.612 332.606C142.235 332.553 144.108 332.274 146.696 331.849C147.383 331.739 148.121 331.623 148.895 331.489C158.859 329.831 175.42 326.835 177.27 326.009C179.806 324.846 179.3 329.942 178.282 334.258C177.264 338.574 176.508 359.27 177.648 361.923C178.788 364.575 178.282 368.903 178.282 368.903L176.764 392.124L177.782 397.057C177.782 397.057 174.356 399.849 175.752 401.495C177.148 403.141 175.88 410.255 175.88 410.255C179.952 408.731 207.477 408.225 207.477 408.225C207.477 408.225 206.314 398.069 207.349 395.661C208.384 393.253 207.605 378.908 207.605 378.908C207.605 378.908 208.239 367.996 207.099 365.459C205.959 362.923 207.477 346.677 207.477 346.677C207.477 346.677 208.495 337.032 208.745 317.36C208.995 297.687 197.577 297.059 197.577 297.059C197.577 297.059 196.059 296.936 193.743 296.715C189.224 296.279 181.685 295.453 176.648 294.389C175.616 294.172 174.596 293.9 173.594 293.574C167.375 291.457 146.44 291.376 143.014 292.9C139.716 294.365 136.418 293.01 136.174 292.9L133.509 288.583L108.055 290.753L105.361 290.986L80.3023 293.121L78.5572 293.272L73.9735 293.627Z" fill="#565387"/>
<path opacity="0.1" d="M176.002 313.09C183.395 316.696 190.451 303.917 193.738 296.71C189.218 296.273 181.679 295.447 176.642 294.383C173.332 299.915 168.911 309.641 176.002 313.09Z" fill="black"/>
<path d="M153.793 226.75C153.946 227.621 154.249 228.46 154.689 229.228C157.423 234.765 165.339 246.167 165.339 246.167C167.694 247.64 169.683 249.629 171.156 251.983C173.314 255.666 173.949 264.292 173.949 264.292C173.949 264.292 178.771 283.453 181.051 286.123C182.214 287.455 181.685 288.246 180.894 288.706C179.272 289.609 177.898 290.897 176.892 292.457C173.565 297.803 168.254 308.419 175.728 312.06C185.879 317.011 195.401 291.067 195.401 291.067C195.401 291.067 193.493 272.668 192.987 269.498C192.481 266.328 189.433 253.252 189.433 253.252C189.433 253.252 187.275 247.667 186.007 243.735C184.739 239.803 180.935 235.231 180.935 235.231C180.935 235.231 174.076 221.526 172.174 219.496C171.29 218.554 170.051 217.367 168.981 216.367C167.742 215.203 166.718 214.296 166.718 214.296C166.718 214.296 153.665 223.713 153.793 226.75Z" fill="#EE8E9E"/>
<path d="M67.7552 424.46L90.8483 434.739C90.8483 434.739 120.776 435.373 126.011 433.977C131.247 432.581 130.083 426.746 123.219 425.6C116.355 424.455 114.721 421.418 112.435 420.022C110.893 419.08 105.42 412.989 102.028 409.133C100.394 407.277 99.2363 405.934 99.2363 405.934C99.2363 405.934 94.7921 394.131 82.4836 396.795C80.233 397.286 78.1593 398.382 76.4864 399.965C69.8493 406.108 69.2734 418.26 69.2734 418.26L67.7552 424.46Z" fill="#434175"/>
<path opacity="0.1" d="M76.7889 295.331L79.7729 297.123C95.7229 306.738 139.227 332.792 141.612 332.606C142.235 332.553 144.108 332.274 146.696 331.849C147.383 331.739 148.121 331.623 148.895 331.489L148.982 331.343C150.262 329.111 151.24 326.719 151.891 324.229C154.555 314.079 141.356 306.337 141.356 306.337L138.564 304.167C135.394 298.827 112.551 293.778 112.551 293.778L109.608 291.771L108.031 290.712L107.618 290.439L104.047 288.037L86.1541 289.305L80.8374 292.719L80.2557 293.08L78.3129 294.354L76.7889 295.331Z" fill="black"/>
<path opacity="0.1" d="M76.4864 399.965C81.3435 416.77 101.633 411.279 101.633 411.279L102.017 409.15C100.382 407.295 99.2246 405.951 99.2246 405.951C99.2246 405.951 94.7805 394.148 82.472 396.813C80.2274 397.3 78.1581 398.39 76.4864 399.965V399.965Z" fill="black"/>
<path d="M71.1814 323.7C78.6677 323.7 97.9391 332.71 97.9391 332.71C101.871 335.758 107.2 334.74 107.2 334.74C107.2 334.74 97.8286 344.257 98.0903 348.195C98.3521 352.133 92.7562 358.601 92.7562 358.601L75.4975 392.735C76.7714 416.974 101.639 410.25 101.639 410.25L102.657 404.537C104.181 403.775 106.467 396.161 106.467 396.161C106.467 396.161 106.467 393.119 107.985 392.229C109.503 391.339 112.679 382.201 112.679 382.201C112.679 382.201 119.531 370.654 119.148 369.136C118.764 367.618 124.098 359.875 124.098 359.875C124.098 359.875 133.108 350.993 132.724 349.405C132.34 347.817 139.972 339.691 139.972 339.691C142.731 337.557 145.023 334.88 146.708 331.826C147.987 329.595 148.965 327.205 149.616 324.718C151.763 316.539 143.619 309.926 140.368 307.663C139.582 307.116 139.082 306.825 139.082 306.825L136.29 304.655C134.847 302.224 129.339 299.851 123.754 297.995C119.729 296.651 115.669 295.569 113.069 294.924C111.324 294.499 110.277 294.261 110.277 294.261L107.333 292.283L106.298 291.585L105.35 290.951L101.772 288.548L93.8149 289.13L83.8797 289.834L78.5688 293.254L76.0327 294.883L66.1148 301.282C66.1148 301.282 65.8531 303.719 65.7716 307C65.7716 307.25 65.7716 307.506 65.7716 307.773C65.6379 314.364 66.3533 323.7 71.1814 323.7Z" fill="#565387"/>
<path d="M109.375 181.57L112.051 191.086C112.051 191.086 116.751 207.461 117.257 208.601C117.763 209.741 130.054 221.294 130.584 221.544C131.113 221.794 137.791 225.615 137.791 225.615C137.791 225.615 138.32 204.675 137.791 198.59C137.747 197.252 137.858 195.913 138.122 194.6C138.931 189.824 140.978 182.826 142.677 177.434C144.096 172.914 145.277 169.529 145.277 169.529C145.277 169.529 115.582 168.255 116.6 171.175C116.984 172.28 116.856 174.124 116.489 175.974C115.873 179.022 114.599 182.07 113.808 181.838C113.035 181.661 112.244 181.573 111.452 181.576C110.37 181.529 109.375 181.57 109.375 181.57Z" fill="#EE8E9E"/>
<path opacity="0.1" d="M116.501 175.962C120.127 178.987 124.632 180.763 129.347 181.026C134.062 181.289 138.737 180.025 142.677 177.422C144.096 172.903 145.277 169.517 145.277 169.517C145.277 169.517 115.582 168.243 116.6 171.164C116.995 172.269 116.867 174.113 116.501 175.962Z" fill="black"/>
<path d="M108.613 158.349C108.612 162.692 109.899 166.938 112.311 170.55C114.723 174.162 118.152 176.977 122.165 178.64C126.177 180.303 130.592 180.739 134.852 179.892C139.112 179.046 143.025 176.955 146.097 173.884C149.169 170.813 151.261 166.901 152.108 162.641C152.956 158.381 152.522 153.966 150.86 149.953C149.198 145.94 146.383 142.51 142.772 140.097C139.161 137.684 134.915 136.396 130.572 136.396C127.685 136.382 124.824 136.94 122.154 138.039C119.484 139.137 117.058 140.753 115.016 142.795C112.974 144.836 111.357 147.261 110.258 149.931C109.159 152.601 108.6 155.462 108.613 158.349V158.349Z" fill="#EE8E9E"/>
<path opacity="0.1" d="M109.375 181.57L112.051 191.086C112.051 191.086 116.751 207.461 117.257 208.601C117.763 209.741 130.054 221.294 130.584 221.544C131.113 221.794 137.791 225.615 137.791 225.615C137.791 225.615 138.32 204.675 137.791 198.59C137.747 197.252 137.858 195.913 138.122 194.6L136.377 201.632L136.505 215.721L137.517 216.483L135.237 219.909V217.367C135.237 217.367 127.093 209.503 125.843 206.199C124.592 202.895 120.026 196.927 120.026 196.927C120.026 196.927 114.791 188.201 114.698 186.66C114.599 185.496 112.412 182.727 111.452 181.576C110.37 181.529 109.375 181.57 109.375 181.57Z" fill="black"/>
<path opacity="0.1" d="M153.793 226.75C153.946 227.621 154.249 228.46 154.689 229.228C157.463 228.949 166.904 227.18 168.998 216.384C167.759 215.221 166.736 214.313 166.736 214.313C166.736 214.313 153.665 223.713 153.793 226.75Z" fill="black"/>
<path opacity="0.1" d="M65.7426 307.733C68.302 305.918 70.7393 303.446 72.1935 302.765C74.3516 301.747 77.6497 298.449 77.6497 298.449C77.6497 298.449 78.4874 297.867 79.7729 297.123C82.1288 295.744 85.9912 293.743 88.9462 293.499C91.5929 293.278 100.4 292.713 107.322 292.283L116.355 291.701C116.355 291.701 124.604 288.793 128.158 290.683C130.703 291.953 133.384 292.929 136.15 293.592C136.15 293.592 136.15 293.313 136.15 292.836L133.486 288.519L105.338 290.922L101.761 288.519L83.868 289.787L78.5572 293.208L73.9735 293.598L76.021 294.837L66.1032 301.235C66.1032 301.235 65.8007 304.074 65.7426 307.733Z" fill="black"/>
<path d="M62.0256 308.855C63.3694 308.454 64.6289 307.811 65.7426 306.959V306.959C68.2962 305.15 70.7277 302.684 72.1761 302.003C74.3341 300.985 77.6323 297.687 77.6323 297.687C77.6323 297.687 84.3625 293.115 88.9287 292.737C90.1735 292.632 92.7795 292.452 95.909 292.248L106.269 291.585L111.644 291.248L116.338 290.962C116.338 290.962 124.586 288.054 128.14 289.945C130.685 291.214 133.367 292.19 136.133 292.853C136.133 292.853 136.261 283.971 137.296 280.288C138.332 276.606 139.704 269.882 139.704 269.882C139.704 269.882 140.868 260.622 141.99 256.433C143.113 252.245 147.575 228.896 149.861 227.349C152.147 225.802 153.409 228.512 153.409 228.512C153.409 228.512 168.638 228.256 168.894 211.509C168.894 211.509 161.785 204.401 161.279 202.627C160.773 200.853 154.049 194.251 154.049 194.251C154.049 194.251 150.239 187.143 145.905 187.015C143.868 186.896 141.824 186.96 139.797 187.206L136.133 202.115L136.261 216.204L137.279 216.966L134.993 220.392V217.896C134.993 217.896 126.849 210.026 125.604 206.728C124.359 203.43 119.787 197.45 119.787 197.45C119.787 197.45 114.587 188.725 114.459 187.183C114.331 185.642 110.777 181.582 110.777 181.582C110.06 181.495 109.336 181.495 108.619 181.582C108.299 181.602 107.978 181.557 107.677 181.448C105.627 180.794 103.446 180.67 101.336 181.087C96.9502 182 90.2841 183.664 88.4459 185.659C85.6538 188.707 81.5936 191.627 77.0215 204.314L101.639 213.196L99.5329 217.204L79.9416 254.432C79.9416 254.432 79.2901 255.491 78.4118 256.87C77.2484 258.661 75.7418 261.005 74.7355 262.291C72.9613 264.577 73.4674 271.807 73.4674 271.807C73.4674 271.807 73.0893 275.234 71.8212 276.508C70.5531 277.781 70.7975 282.464 70.7975 282.464L67.4993 294.773C67.4993 294.773 64.4512 297.565 64.4512 298.844C64.4512 300.124 62.043 303.667 62.043 303.667C62.043 303.667 58.3609 309.739 62.0256 308.855Z" fill="#DFE5EE"/>
<path opacity="0.1" d="M78.406 256.87C78.5756 257.57 78.7057 258.278 78.7957 258.993C78.7957 258.993 88.8182 282.47 90.0863 283.866C90.476 284.296 91.9535 286.408 93.8033 289.101L95.9265 292.236C99.7598 297.931 104.07 304.4 104.07 304.4L113.459 312.648C113.459 312.648 133.888 314.282 140.379 307.651C139.594 307.104 139.094 306.814 139.094 306.814L136.302 304.644C134.859 302.212 129.35 299.839 123.766 297.983C118.624 298.018 114.418 298.437 114.418 298.437L113.08 294.912L111.684 291.236L104.565 272.575C104.565 272.575 99.9867 248.976 98.4626 247.83C96.9386 246.684 97.2992 243.136 97.2992 243.136C97.2992 243.136 100.091 233.113 99.0734 231.717C98.0554 230.321 100.725 220.037 100.725 220.037C100.461 219.034 100.049 218.075 99.5038 217.193L79.9125 254.421C79.9125 254.421 79.2843 255.474 78.406 256.87Z" fill="black"/>
<path d="M100.999 219.263C100.999 219.263 98.3347 229.542 99.3526 230.938C100.371 232.334 97.5726 242.356 97.5726 242.356C97.5726 242.356 97.1945 245.911 98.736 247.051C100.277 248.191 104.838 271.796 104.838 271.796L114.668 297.687C114.668 297.687 145.434 294.639 142.264 304.283C139.094 313.928 113.709 311.897 113.709 311.897L104.32 303.649C104.32 303.649 91.6278 284.488 90.3597 283.092C89.0916 281.696 79.0633 258.219 79.0633 258.219C79.0633 258.219 78.5572 253.525 76.3991 251.111C74.2411 248.697 75.8931 244.625 75.8931 244.625C75.8931 244.625 73.2289 213.929 76.021 210.253C78.8131 206.577 98.0903 208.223 100.999 219.263Z" fill="#EE8E9E"/>
<path opacity="0.1" d="M191.993 317.988C191.993 317.988 183.994 320.658 181.854 324.462C179.713 328.266 191.993 317.988 191.993 317.988Z" fill="black"/>
<path opacity="0.1" d="M187.927 309.617C187.676 309.995 176.979 320.728 177.648 323.322C178.317 325.916 187.927 309.617 187.927 309.617Z" fill="black"/>
<path opacity="0.1" d="M129.176 317.232C129.176 317.232 117.245 322.857 116.227 325.305C115.209 327.754 129.176 317.232 129.176 317.232Z" fill="black"/>
<path opacity="0.1" d="M128.414 324.462C128.414 324.462 117.647 329.028 116.198 330.174C114.75 331.32 128.414 324.462 128.414 324.462Z" fill="black"/>
<path opacity="0.1" d="M123.464 334.234C123.464 334.234 118.694 337.789 116.065 334.996C113.435 332.204 123.464 334.234 123.464 334.234Z" fill="black"/>
<path opacity="0.1" d="M141.356 241.594C141.1 241.978 125.238 270.528 121.05 272.686C116.861 274.844 141.356 241.594 141.356 241.594Z" fill="black"/>
<path opacity="0.1" d="M140.594 252.385C140.594 253.019 125.11 286.123 122.562 286.518C120.014 286.914 140.594 252.385 140.594 252.385Z" fill="black"/>
<path opacity="0.1" d="M81.7099 273.704C81.7099 273.704 74.2411 289.671 71.3326 290.608C68.4242 291.544 81.7099 273.704 81.7099 273.704Z" fill="black"/>
<path opacity="0.1" d="M80.4419 266.596C80.4419 266.596 77.865 272.18 76.3002 272.18C74.7355 272.18 80.4419 266.596 80.4419 266.596Z" fill="black"/>
<path opacity="0.1" d="M108.613 158.349C108.611 160.973 109.082 163.576 110.003 166.033C109.922 163.183 110.429 160.347 111.494 157.703C112.558 155.058 114.156 152.661 116.189 150.662C118.221 148.663 120.644 147.104 123.306 146.084C125.968 145.064 128.812 144.603 131.66 144.732C132.724 144.778 133.986 145.028 134.417 145.994C134.586 146.512 134.674 147.054 134.679 147.599C134.999 150.066 137.5 151.607 139.85 152.41C142.2 153.213 144.817 153.724 146.522 155.534C148.081 157.191 148.523 159.57 149.291 161.717C149.722 163.031 150.456 164.226 151.431 165.207C152.424 162.188 152.75 158.99 152.386 155.834C152.023 152.677 150.979 149.637 149.325 146.923C147.672 144.209 145.45 141.886 142.812 140.115C140.174 138.344 137.182 137.166 134.045 136.664C130.907 136.161 127.698 136.345 124.638 137.204C121.579 138.063 118.742 139.575 116.324 141.637C113.906 143.699 111.965 146.261 110.633 149.146C109.302 152.031 108.613 155.171 108.613 158.349V158.349Z" fill="black"/>
<path d="M149.616 138.473C147.813 136.024 144.614 135.174 141.833 133.941C138.395 132.383 135.359 130.056 132.96 127.141C130.561 124.226 128.863 120.799 127.995 117.125C126.887 118.754 126.367 120.713 126.521 122.678C126.676 124.642 127.495 126.496 128.844 127.932C123.789 127.589 118.205 127.007 114.779 123.279C114 125.966 116.332 129.02 115.058 131.51C113.965 133.65 110.986 133.836 109.061 135.291C107.008 136.815 106.327 139.578 106.199 142.131C106.071 144.685 106.339 147.303 105.583 149.746C105.001 151.601 103.837 153.306 103.721 155.243C103.708 156.686 104.026 158.113 104.652 159.413C106.087 162.878 108.032 166.109 110.422 169C109.772 165.901 109.838 162.694 110.617 159.625C111.396 156.556 112.866 153.706 114.916 151.292C116.965 148.879 119.539 146.966 122.441 145.7C125.343 144.433 128.496 143.848 131.66 143.987C132.724 144.033 133.986 144.289 134.417 145.255C134.587 145.773 134.676 146.315 134.679 146.861C134.999 149.321 137.5 150.863 139.85 151.665C142.2 152.468 144.817 152.986 146.522 154.789C148.081 156.447 148.523 158.826 149.291 160.972C150.058 163.119 151.542 165.364 153.805 165.626C154.322 162.438 154.846 159.227 154.526 155.993C154.177 152.532 151.85 150.572 151.036 147.559C150.152 144.4 151.827 141.474 149.616 138.473Z" fill="#603556"/>
<path opacity="0.1" d="M85.2932 199.975L77.3007 204.797C77.3007 204.797 75.0147 212.533 73.2289 213.522C73.2289 213.522 89.2196 204.64 101.272 225.069C101.272 225.069 100.894 222.405 102.54 221.136C104.186 219.868 103.808 214.412 103.808 214.412C104.252 213.548 104.641 212.656 104.972 211.742C106.077 208.979 100.115 192.994 85.2932 199.975Z" fill="black"/>
<path d="M85.0139 199.463L77.0157 204.285C77.0157 204.285 74.7297 212.027 72.9439 213.045C72.9439 213.045 88.9345 204.157 100.987 224.592C100.987 224.592 100.609 221.928 102.261 220.659C103.913 219.391 103.529 213.929 103.529 213.929C103.976 213.068 104.365 212.178 104.693 211.265C105.821 208.473 99.8354 192.482 85.0139 199.463Z" fill="#DFE5EE"/>
<g opacity="0.1">
<rect width="50.3282" height="49.24" fill="black" fill-opacity="0" transform="translate(103.721 119.748)"/>
<path opacity="0.1" d="M115.442 129.677C115.413 127.607 114.18 125.326 114.779 123.279L114.884 123.389C115.029 125.507 116.204 127.735 115.442 129.677Z" fill="black"/>
<path opacity="0.1" d="M106.455 140.596C106.333 142.922 106.542 145.249 106.019 147.512C106.211 145.738 106.106 143.911 106.199 142.12C106.238 141.27 106.348 140.426 106.531 139.595C106.496 139.95 106.467 140.264 106.455 140.596Z" fill="black"/>
<path opacity="0.1" d="M103.721 155.231C103.754 154.769 103.838 154.313 103.971 153.87C103.993 155.257 104.312 156.624 104.908 157.878C106.222 161.048 107.963 164.022 110.085 166.719C110.154 167.481 110.267 168.239 110.422 168.988C108.032 166.098 106.087 162.867 104.652 159.402C104.026 158.101 103.708 156.674 103.721 155.231V155.231Z" fill="black"/>
<path opacity="0.1" d="M129.1 126.408C128.612 126.379 128.111 126.344 127.617 126.304C126.509 124.306 126.207 121.961 126.773 119.748C126.667 120.96 126.819 122.18 127.22 123.329C127.621 124.477 128.262 125.527 129.1 126.408Z" fill="black"/>
<path opacity="0.1" d="M115.163 149.752C117.229 147.357 119.806 145.457 122.705 144.192C125.603 142.928 128.749 142.331 131.91 142.445C132.974 142.498 134.237 142.748 134.673 143.714C134.84 144.233 134.928 144.774 134.935 145.319C135.254 147.78 137.75 149.327 140.106 150.124C142.462 150.921 145.068 151.444 146.772 153.253C148.337 154.911 148.779 157.29 149.547 159.431C150.314 161.571 151.792 163.817 154.049 164.084L153.805 165.608C151.542 165.364 150.058 163.119 149.291 160.955C148.523 158.791 148.081 156.429 146.522 154.771C144.817 152.968 142.2 152.445 139.85 151.648C137.5 150.851 134.999 149.321 134.679 146.843C134.676 146.298 134.587 145.756 134.417 145.238C133.963 144.272 132.724 144.016 131.66 143.97C126.715 143.739 121.853 145.291 117.956 148.343C114.06 151.395 111.388 155.744 110.428 160.6C110.934 156.605 112.578 152.839 115.163 149.752Z" fill="black"/>
</g>
<path d="M251.174 197.572V220.334L229.395 218.589V197.572H251.174Z" fill="#3A3768"/>
<path opacity="0.1" d="M251.174 218.472V220.334L229.395 218.589V216.727L251.174 218.472Z" fill="black"/>
<path d="M257.828 221.968L223.951 220.223C223.951 219.344 224.3 218.5 224.922 217.879C225.543 217.257 226.387 216.908 227.266 216.908L254.512 218.653C255.392 218.653 256.235 219.002 256.857 219.624C257.479 220.246 257.828 221.089 257.828 221.968Z" fill="#3A3768"/>
<path d="M299.204 203.825L182.022 200.335C181.554 200.336 181.09 200.244 180.657 200.065C180.224 199.886 179.831 199.624 179.499 199.293C179.168 198.961 178.905 198.568 178.726 198.135C178.548 197.702 178.456 197.238 178.457 196.769V127.548C178.457 127.08 178.549 126.617 178.728 126.185C178.907 125.752 179.17 125.36 179.501 125.029C179.833 124.698 180.226 124.436 180.658 124.258C181.091 124.079 181.554 123.988 182.022 123.988L299.204 127.479C300.148 127.479 301.055 127.853 301.723 128.521C302.392 129.188 302.768 130.094 302.77 131.039V200.26C302.77 201.205 302.394 202.112 301.725 202.781C301.056 203.45 300.149 203.825 299.204 203.825Z" fill="#3A3768"/>
<path d="M299.89 198.765L181.074 195.275V132.906L299.89 136.396V198.765Z" fill="#AD00FF"/>
<path d="M240.482 130.719C241.06 130.719 241.529 130.255 241.529 129.683C241.529 129.111 241.06 128.648 240.482 128.648C239.904 128.648 239.435 129.111 239.435 129.683C239.435 130.255 239.904 130.719 240.482 130.719Z" fill="white"/>
<path opacity="0.1" d="M251.15 201.883L229.442 201.534V202.272H251.15V201.883Z" fill="black"/>
<path opacity="0.1" d="M211.619 223.3L241.349 225.249L235.014 234.352L202.329 230.862L211.619 223.3Z" fill="black"/>
<path d="M211.037 222.719L240.767 224.667L234.433 233.771L201.747 230.281L211.037 222.719Z" fill="#3A3768"/>
<path d="M212.352 223.393L238.278 224.976L232.757 232.392L204.249 229.548L212.352 223.393Z" fill="#D5E1F4"/>
<path opacity="0.1" d="M513.882 467.802C534.507 467.802 551.227 465.237 551.227 462.072C551.227 458.908 534.507 456.343 513.882 456.343C493.257 456.343 476.538 458.908 476.538 462.072C476.538 465.237 493.257 467.802 513.882 467.802Z" fill="#AD00FF"/>
<path d="M534.869 326.841C534.869 326.841 539.017 332.268 532.95 340.464C526.883 348.66 521.898 355.588 523.905 360.684C523.905 360.684 533.06 345.461 540.506 345.252C547.952 345.042 543.083 335.979 534.869 326.841Z" fill="#AD00FF"/>
<path opacity="0.1" d="M534.869 326.841C535.228 327.365 535.512 327.937 535.713 328.54C542.984 337.085 546.858 345.054 539.872 345.252C533.363 345.438 525.557 357.072 523.684 360.015C523.746 360.241 523.82 360.465 523.905 360.684C523.905 360.684 533.06 345.461 540.506 345.252C547.952 345.042 543.083 335.979 534.869 326.841Z" fill="black"/>
<path d="M542.583 333.757C542.583 335.665 542.367 337.248 542.106 337.248C541.844 337.248 541.623 335.694 541.623 333.757C541.623 331.82 541.89 332.745 542.158 332.745C542.426 332.745 542.583 331.849 542.583 333.757Z" fill="#FFD037"/>
<path d="M545.229 336.038C543.554 336.951 542.088 337.503 541.966 337.271C541.844 337.038 543.095 336.107 544.77 335.194C546.445 334.281 545.788 334.95 545.933 335.194C546.079 335.439 546.91 335.124 545.229 336.038Z" fill="#FFD037"/>
<path d="M512.946 326.841C512.946 326.841 508.792 332.268 514.859 340.464C520.926 348.66 525.911 355.588 523.905 360.684C523.905 360.684 514.755 345.461 507.303 345.252C499.852 345.042 504.75 335.979 512.946 326.841Z" fill="#AD00FF"/>
<path opacity="0.1" d="M512.946 326.841C512.583 327.364 512.297 327.936 512.096 328.54C504.831 337.085 500.957 345.054 507.943 345.252C514.452 345.438 522.258 357.072 524.126 360.015C524.066 360.242 523.992 360.466 523.905 360.684C523.905 360.684 514.755 345.461 507.303 345.252C499.852 345.042 504.75 335.979 512.946 326.841Z" fill="black"/>
<path d="M505.232 333.757C505.232 335.665 505.442 337.248 505.709 337.248C505.977 337.248 506.186 335.694 506.186 333.757C506.186 331.82 505.919 332.745 505.657 332.745C505.395 332.745 505.232 331.849 505.232 333.757Z" fill="#FFD037"/>
<path d="M502.58 336.038C504.261 336.951 505.721 337.503 505.849 337.271C505.977 337.038 504.686 336.107 503.039 335.194C501.393 334.281 502.027 334.95 501.876 335.194C501.725 335.439 500.905 335.124 502.58 336.038Z" fill="#FFD037"/>
<path opacity="0.1" d="M523.905 402.205C547.871 402.205 567.299 399.223 567.299 395.544C567.299 391.866 547.871 388.884 523.905 388.884C499.939 388.884 480.511 391.866 480.511 395.544C480.511 399.223 499.939 402.205 523.905 402.205Z" fill="#AD00FF"/>
<path d="M546.242 353.366L546.032 355.065L545.741 357.455L545.619 358.456L545.328 360.847L545.206 361.847L544.915 364.238L541.594 391.461C541.297 393.892 537.324 395.783 532.531 395.783H515.278C510.485 395.783 506.524 393.892 506.227 391.461L502.9 364.238L502.609 361.847L502.487 360.847L502.19 358.456L502.068 357.455L501.777 355.065L501.574 353.366C501.405 351.993 503.551 350.83 506.262 350.83H541.553C544.246 350.83 546.41 351.993 546.242 353.366Z" fill="#65617D"/>
<path d="M546.032 355.065L545.741 357.455H502.074L501.783 355.065H546.032Z" fill="#9D9CB5"/>
<path d="M545.619 358.456L545.328 360.852H502.487L502.19 358.456H545.619Z" fill="#9D9CB5"/>
<path d="M545.206 361.847L544.915 364.244H502.9L502.609 361.847H545.206Z" fill="#9D9CB5"/>
</svg>
